<svg xmlns="http://www.w3.org/2000/svg" viewBox="0 0 172.24529 14"><defs><style>.a{fill:#eee;}</style></defs><title>dulockwood_mockup-2017</title><path class="a" d="M0,10.64809l.09367-.46773H1.23174L3.19593.7015H2.01123L2.12017.23376H6.82844c2.55675,0,4.83289,1.27848,4.83289,4.42768A6.16976,6.16976,0,0,1,8.793,9.775c-1.49707.96662-2.75977.87305-4.44336.87305Zm3.86648-.46773H4.94224a5.00427,5.00427,0,0,0,1.79253-.265c1.01346-.37417,1.59033-2.32288,1.80862-3.2895a25.91791,25.91791,0,0,0,.5612-4.03793c0-1.68369-1.247-1.8864-2.13585-1.8864H5.815Z"/><path class="a" d="M17.82088,4.47431h1.73063L18.21083,9.49444c-.12462.48331.10894.54562.20261.54562.53025,0,1.15375-1.23164,1.35636-1.66812l.32764.10914c-.45226.95094-1.09145,2.22931-2.29183,2.22931-.74854,0-1.10713-.67034-1.23174-1.32511A2.613,2.613,0,0,1,14.39139,10.882a2.20272,2.20272,0,0,1-2.12058-2.40087,4.30641,4.30641,0,0,1,2.6661-3.882,2.40488,2.40488,0,0,1,.91978-.21829,1.72242,1.72242,0,0,1,1.637,1.16923ZM14.71862,7.31175a25.26883,25.26883,0,0,0-.51457,2.47886.59791.59791,0,0,0,.62351.65476c1.43435,0,2.33887-3.22719,2.33887-4.36526,0-.57677-.29628-1.2628-.95115-1.2628C15.95036,4.81732,15.31118,4.97319,14.71862,7.31175Z"/><path class="a" d="M23.62143,6.06453l.03136.03126c.71718-.81074,1.372-1.715,2.57243-1.715.68582,0,1.7459.38974,1.4653,1.62138l-.9041,3.86638a.27047.27047,0,0,0,.26492.29618c.51457,0,1.20038-1.16923,1.372-1.59023l.26492.078c-.51457,1.2628-1.07576,2.05786-2.51012,2.05786-.79475,0-1.57424-.32733-1.26269-1.62128l.81085-3.30518c.156-.65476-.01568-.87305-.20261-.87305-.4209,0-.90452.57688-1.18512.87305a4.25522,4.25522,0,0,0-1.1847,2.35414l-.59256,2.51H20.51917l1.38731-5.7372H20.78408l.10935-.43658H22.499c.53025,0,1.06008-.06231,1.59033-.06231Z"/><path class="a" d="M29.25073,4.91088l.10894-.43658h1.606c.53025,0,1.06008-.06231,1.59033-.06231L31.32426,9.60358c-.09367.4209-.1403.62361.18693.62361.53025,0,1.16943-1.2629,1.35636-1.715l.32764.15588c-.51457,1.32521-1.13807,2.21384-2.63474,2.21384-.65487,0-1.26311-.343-1.26311-.87305a8.31861,8.31861,0,0,1,.21829-1.23164l.85748-3.86638Zm3.75713-3.22719a1.11149,1.11149,0,0,1-1.091,1.1225,1.0755,1.0755,0,0,1-.99777-1.1225A1.09017,1.09017,0,0,1,31.91682.65476,1.06121,1.06121,0,0,1,33.00785,1.68369Z"/><path class="a" d="M36.09567,8.10692a9.57022,9.57022,0,0,0-.26533,1.6057c0,.5613.32764.73275.82653.73275a3.89836,3.89836,0,0,0,3.18025-1.76168l.24965.21829a4.23967,4.23967,0,0,1-3.69482,1.98,2.4929,2.4929,0,0,1-2.71273-2.46328c0-2.10469,2.29183-4.03783,4.30265-4.03783.98251,0,2.29183.43647,2.29183,1.65254,0,.99777-.68582,1.51224-1.559,1.80852a4.45707,4.45707,0,0,1-1.35636.265Zm1.01346-.43658a1.83257,1.83257,0,0,0,1.57424-1.96439c0-.59235-.21788-.88863-.8418-.88863-.46753,0-.85748.21829-1.12239,1.10692l-.51457,1.74611Z"/><path class="a" d="M42.22345.59235,42.3328.15588h1.6056A13.73707,13.73707,0,0,0,45.52873,0L43.31489,9.588c-.04663.23376-.1403.60793.18693.63919.5612.04673,1.18512-1.20049,1.38772-1.637l.32723.17145c-.52984,1.23164-1.10671,2.12027-2.51012,2.12027A1.25595,1.25595,0,0,1,41.335,9.588a2.30254,2.30254,0,0,1,.1403-.71718L43.34584.59235Z"/><path class="a" d="M52.93488.7015H51.71881l.10935-.46773h4.94224L56.66106.7015H55.492L54.16662,7.1403c-.54552,2.61916.078,3.27392,1.57465,3.27392a2.67323,2.67323,0,0,0,2.75935-2.46328l1.26311-6.25167C59.935.82622,59.60775.7015,59.0775.7015H58.688l.10894-.46773h2.97764L61.66561.7015H61.307c-.54552,0-.77949.32743-.95115,1.1225L59.13981,7.54562c-.34291,1.637-.7015,2.60358-2.38509,3.1492a5.855,5.855,0,0,1-1.80862.18713c-2.26047,0-3.46085-.91989-3.46085-2.60358a12.08721,12.08721,0,0,1,.2806-1.902Z"/><path class="a" d="M62.571.59235,62.6803.15588h1.6056A13.73707,13.73707,0,0,0,65.87624,0L63.6624,9.588c-.04663.23376-.1403.60793.18693.63919.5612.04673,1.18512-1.20049,1.38772-1.637l.32723.17145c-.52984,1.23164-1.10671,2.12027-2.51012,2.12027a1.25595,1.25595,0,0,1-1.37163-1.294,2.30254,2.30254,0,0,1,.1403-.71718L63.69335.59235Z"/><path class="a" d="M70.3819,8.48108l1.04482-2.83745c.18693-.48331.38954-1.2628,1.02872-1.2628a.70008.70008,0,0,1,.71718.76391c0,.40532-.18693.87305-.65487.87305-.10894,0-.29587-.12472-.4209-.1403-.24924-.04684-.40522.45205-.46753.62361L70.008,10.67924C69.49348,11.98887,68.51138,14,66.87442,14a1.06248,1.06248,0,0,1-1.10713-1.06019.89716.89716,0,0,1,.9041-.95094c.49889,0,.93547.343.82653.8419-.06231.2806.09367.35848.24924.35848.34332,0,1.27837-1.30953,1.35636-1.65254a1.556,1.556,0,0,0,.06231-.37417,3.19808,3.19808,0,0,0-.20261-.82622L67.68486,6.54784c-.078-.23387-.20261-.95094-.51457-.95094-.34291,0-.82611.96652-.96641,1.216l-.34291-.1403c.32723-.87305,1.20038-2.29173,2.26047-2.29173.51457,0,1.10713.06231,1.43435,1.21606Z"/><path class="a" d="M74.70188,7.53A1.1645,1.1645,0,0,1,74.203,6.42312a2.27374,2.27374,0,0,1,2.49444-2.04228c.68582,0,1.82389.29618,1.82389,1.18481a.76675.76675,0,0,1-1.52761.10914,3.07172,3.07172,0,0,1,.078-.608c.04663-.187-.48362-.24944-.60824-.24944-.35859,0-.98209.078-.98209.54572a.53587.53587,0,0,0,.312.51446l1.559,1.15365a1.91192,1.91192,0,0,1,.93505,1.57465A2.37029,2.37029,0,0,1,75.65261,10.882c-.85706,0-2.29142-.29618-2.29142-1.41878a.89284.89284,0,0,1,.91978-.91978.80571.80571,0,0,1,.79517.82632c0,.265-.203.57677-.203.76391,0,.2806.62392.31175.85748.31175.46794,0,1.24742-.09346,1.24742-.73275a1.06561,1.06561,0,0,0-.49889-.81064Z"/><path class="a" d="M80.61095,7.53a1.1645,1.1645,0,0,1-.49889-1.10692A2.27374,2.27374,0,0,1,82.6065,4.38084c.68582,0,1.82389.29618,1.82389,1.18481a.76675.76675,0,0,1-1.52761.10914,3.07172,3.07172,0,0,1,.078-.608c.04663-.187-.48362-.24944-.60824-.24944-.35859,0-.98209.078-.98209.54572a.53587.53587,0,0,0,.312.51446l1.559,1.15365a1.91192,1.91192,0,0,1,.93505,1.57465A2.37029,2.37029,0,0,1,81.56168,10.882c-.85706,0-2.29142-.29618-2.29142-1.41878a.89284.89284,0,0,1,.91978-.91978.80571.80571,0,0,1,.79517.82632c0,.265-.203.57677-.203.76391,0,.2806.62392.31175.85748.31175.46794,0,1.24742-.09346,1.24742-.73275a1.06561,1.06561,0,0,0-.49889-.81064Z"/><path class="a" d="M87.72082,8.10692a9.57022,9.57022,0,0,0-.26533,1.6057c0,.5613.32764.73275.82653.73275a3.89836,3.89836,0,0,0,3.18025-1.76168l.24965.21829a4.23967,4.23967,0,0,1-3.69482,1.98,2.4929,2.4929,0,0,1-2.71273-2.46328c0-2.10469,2.29183-4.03783,4.30265-4.03783.98251,0,2.29183.43647,2.29183,1.65254,0,.99777-.68582,1.51224-1.559,1.80852a4.45707,4.45707,0,0,1-1.35636.265Zm1.01346-.43658a1.83257,1.83257,0,0,0,1.57424-1.96439c0-.59235-.21788-.88863-.8418-.88863-.46753,0-.85748.21829-1.12239,1.10692l-.51457,1.74611Z"/><path class="a" d="M94.00457,7.53a1.1645,1.1645,0,0,1-.49889-1.10692,2.27374,2.27374,0,0,1,2.49444-2.04228c.68582,0,1.82389.29618,1.82389,1.18481a.76675.76675,0,0,1-1.52761.10914,3.07172,3.07172,0,0,1,.078-.608c.04663-.187-.48362-.24944-.60824-.24944-.35859,0-.98209.078-.98209.54572a.53587.53587,0,0,0,.312.51446l1.559,1.15365A1.91192,1.91192,0,0,1,97.59,8.60581,2.37029,2.37029,0,0,1,94.9553,10.882c-.85706,0-2.29142-.29618-2.29142-1.41878a.89284.89284,0,0,1,.91978-.91978.80571.80571,0,0,1,.79517.82632c0,.265-.203.57677-.203.76391,0,.2806.62392.31175.85748.31175.46794,0,1.24742-.09346,1.24742-.73275a1.06561,1.06561,0,0,0-.49889-.81064Z"/><path class="a" d="M103.001,10.64809l.10935-.46773h1.12239L106.22834.7015h-1.247l.10894-.46773h5.00455l-.09367.46773h-1.20038l-1.96419,9.47886h.85748c1.90188,0,2.97764-1.07566,3.88175-2.96217h.57688l-.84179,3.4299Z"/><path class="a" d="M120.19842,7.01558a4.29729,4.29729,0,0,1-3.27392,3.7105,5.03752,5.03752,0,0,1-1.35636.15588,2.54843,2.54843,0,0,1-2.75935-2.61916c0-2.19826,2.52539-3.882,4.53661-3.882A2.74117,2.74117,0,0,1,120.19842,7.01558ZM115.77075,5.7372a32.71852,32.71852,0,0,0-.84179,4.19371c0,.48331.57688.51446.96683.51446.60783,0,.99777-.06231,1.21565-.63919a19.37951,19.37951,0,0,0,.96683-4.24054c0-.54562-.34291-.74833-.9041-.74833A1.32337,1.32337,0,0,0,115.77075,5.7372Z"/><path class="a" d="M127.02769,9.13585a4.05785,4.05785,0,0,1-3.24256,1.74611,2.62864,2.62864,0,0,1-2.697-2.60358c0-2.058,2.22911-3.89753,4.19371-3.89753.84179,0,2.15153.35859,2.15153,1.43425a.93311.93311,0,0,1-.96683.99777.8566.8566,0,0,1-.9041-.85748,1.45226,1.45226,0,0,1,.078-.45205,1.70125,1.70125,0,0,0,.078-.31186.42886.42886,0,0,0-.43658-.37417.87769.87769,0,0,0-.87316.40532,12.38125,12.38125,0,0,0-1.20038,4.49c0,.53015.40522.73275.85748.73275a3.51641,3.51641,0,0,0,2.71273-1.52782Z"/><path class="a" d="M130.1316.59235h-1.12239l.10894-.43647h1.606A13.73005,13.73005,0,0,0,132.31408,0l-1.52761,6.78171a2.14848,2.14848,0,0,1,1.02872-.21829c.73286-.96652,1.20038-2.35414,2.60379-2.35414a.96653.96653,0,0,1,.98209,1.04461.88944.88944,0,0,1-.9041.91978.75206.75206,0,0,1-.76422-.68592c0-.10914.10935-.37417.10935-.51457a.166.166,0,0,0-.156-.1403c-.38995,0-1.20038,1.49666-1.4653,1.79294a1.73062,1.73062,0,0,1,1.6056,1.76168,5.15254,5.15254,0,0,1-.1403,1.20049c-.078.32733-.078.53.18693.53.48362,0,1.29405-1.07576,1.46571-1.49666l.2806.10914a2.8781,2.8781,0,0,1-2.43213,1.97987c-.7015,0-1.51234-.32733-1.51234-1.16923a3.5268,3.5268,0,0,1,.26492-1.15365,3.14542,3.14542,0,0,0,.24965-1.07576c0-.15588-.03136-.32733-.1403-.32733-.078,0-.156.12472-.2806.24944a.72848.72848,0,0,1-.51457.23376.7514.7514,0,0,1-.5612-.21819l-.77949,3.39864H127.8864Z"/><path class="a" d="M143.13445,7.46763a6.47375,6.47375,0,0,0-.21829,1.74611c0,.38985.09367,1.01346.60824,1.01346.91978,0,2.12017-2.15153,2.12017-3.60136,0-.156.04663-.54572-.21829-.54572-.09326,0-.20261-.03115-.31155-.03115a.72723.72723,0,0,1-.74854-.81064.90755.90755,0,0,1,.84179-.85748c.79517,0,1.04482.71718.98209,1.51224-.24924,3.196-1.76158,4.98887-3.39854,4.98887-.85748,0-1.6056-.62361-1.6056-1.93324,0-.38974.078-.77949.10894-1.13807l-.03095-.03115c-.51457,1.07576-1.18512,2.61916-2.41686,3.02448a2.07838,2.07838,0,0,1-.67013.078,1.35011,1.35011,0,0,1-1.46571-1.21606,6.87993,6.87993,0,0,1,.26533-1.1225l.68582-2.323A3.966,3.966,0,0,0,137.865,5.363a.19637.19637,0,0,0-.20261-.20271c-.4209,0-1.0444,1.15365-1.247,1.49666l-.312-.21829c.46753-.81064,1.20038-2.05786,2.27615-2.05786a1.25325,1.25325,0,0,1,1.30973,1.35636,3.05873,3.05873,0,0,1-.1403.82622L138.72245,9.588c-.18693.67034.047.65476.20261.65476.59256,0,1.35636-1.30963,1.606-1.76168A11.05,11.05,0,0,0,141.5598,5.8775l.32764-1.4032h1.96419Z"/><path class="a" d="M154.39181,7.01558a4.29729,4.29729,0,0,1-3.27392,3.7105,5.03752,5.03752,0,0,1-1.35636.15588,2.54843,2.54843,0,0,1-2.75935-2.61916c0-2.19826,2.52539-3.882,4.53661-3.882A2.74117,2.74117,0,0,1,154.39181,7.01558ZM149.96413,5.7372a32.71852,32.71852,0,0,0-.84179,4.19371c0,.48331.57688.51446.96683.51446.60783,0,.99777-.06231,1.21565-.63919a19.3795,19.3795,0,0,0,.96683-4.24054c0-.54562-.34291-.74833-.9041-.74833A1.32337,1.32337,0,0,0,149.96413,5.7372Z"/><path class="a" d="M162.90549,7.01558a4.29729,4.29729,0,0,1-3.27392,3.7105,5.03752,5.03752,0,0,1-1.35636.15588,2.54843,2.54843,0,0,1-2.75935-2.61916c0-2.19826,2.52539-3.882,4.53661-3.882A2.74117,2.74117,0,0,1,162.90549,7.01558ZM158.47781,5.7372a32.71852,32.71852,0,0,0-.84179,4.19371c0,.48331.57688.51446.96683.51446.60783,0,.99777-.06231,1.21565-.63919a19.37951,19.37951,0,0,0,.96683-4.24054c0-.54562-.34291-.74833-.9041-.74833A1.32337,1.32337,0,0,0,158.47781,5.7372Z"/><path class="a" d="M170.2027.59235H169.0803l.10935-.43647h1.52761c.51457,0,1.01346-.10914,1.528-.15588L170.2027,9.74388c-.078.38974.047.49889.234.49889.48321,0,1.1847-1.2628,1.27837-1.715l.32764.12472c-.2806,1.06008-.98251,2.22942-2.18289,2.22942a1.3389,1.3389,0,0,1-1.51234-1.41878L168.3165,9.432a2.1987,2.1987,0,0,1-2.19816,1.44993,2.43021,2.43021,0,0,1-2.1049-2.52559A4.17462,4.17462,0,0,1,167.771,4.38084a1.34185,1.34185,0,0,1,1.4653.91978Zm-2.21384,4.225c-.71718,0-.98209.77959-1.20038,1.32521a19.66257,19.66257,0,0,0-.8418,3.78839c0,.45216.18693.51446.60824.51446,1.68359,0,2.40077-3.10237,2.40077-4.44315C168.95568,5.39419,168.69077,4.81732,167.98886,4.81732Z"/></svg>