<svg xmlns="http://www.w3.org/2000/svg" viewBox="0 0 24 24"><defs><style>.a{fill:#212121;}.b{fill:#eee;}</style></defs><title>dulockwood_mockup-2017</title><rect class="a" width="24" height="24"/><path class="b" d="M2,6.17988s.12023.01.18907.01c1.89468.00059,3.78065-.00286,5.67531.00232a5.34254,5.34254,0,0,1,2.04376.34538,2.73259,2.73259,0,0,1,1.65649,1.68294,3.36906,3.36906,0,0,1-.12594,2.65309,2.27448,2.27448,0,0,1-.94935.94168c-.068.0393-.136.07906-.2309.13442.18246.091.34468.16294.49847.25A2.72435,2.72435,0,0,1,12.131,14.39361a3.7448,3.7448,0,0,1-.52948,2.4797,3.32808,3.32808,0,0,1-1.6344,1.39013,6.80569,6.80569,0,0,1-2.51058.36438c-1.76161.00557-3.50581.00156-5.26743.00212C2.12023,18.63,2,18.63646,2,18.63646ZM5,16.46966s.76061.00427,1.16912-.001c.65913-.00847,1.277-.00737,1.93493-.041a1.43894,1.43894,0,0,0,1.06473-.50012,1.88668,1.88668,0,0,0,.35879-1.51686,1.28315,1.28315,0,0,0-1.054-1.136,5.53311,5.53311,0,0,0-1.01235-.11809c-.81357-.01663-1.62905-.00167-2.4429-.00892-.148-.00132-.10572.0404-.10484.1872C4.91947,14.319,5,15.30312,5,16.28726Zm1.29312-5.37072c.35638,0,.71328.01184,1.069-.0037a6.08467,6.08467,0,0,0,.86931-.094,1.19536,1.19536,0,0,0,.80322-.44688A1.5248,1.5248,0,0,0,9.178,9.09405.8457.8457,0,0,0,8.642,8.56a2.87681,2.87681,0,0,0-.7914-.16723C6.88887,8.3625,5.9262,8.36325,4.964,8.34828c-.10857-.00169-.13416.03988-.1338.14009q.00439,1.2287-.00066,2.45741c-.00062.11869.0363.15716.15515.15561C5.42074,11.09571,5.857,11.09914,6.29312,11.09894Z"/><path class="b" d="M21.96,14c0-.25,0-.71973-.01-.81982A4.5553,4.5553,0,0,0,21.26,10.98a3.70849,3.70849,0,0,0-1.29-1.29,4.72829,4.72829,0,0,0-2.23-.58984,4.494,4.494,0,0,0-2.8999.81982,3.882,3.882,0,0,0-1.46021,2.08984,6.91937,6.91937,0,0,0-.06982,3.5A3.48933,3.48933,0,0,0,14.5,17.49023a4.87165,4.87165,0,0,0,3.14014,1.09961A4.48157,4.48157,0,0,0,20.48,17.78027a3.45189,3.45189,0,0,0,1.27-1.58008c.03-.07031.04248-.14346.0625-.183L21.71,16.02l-.56982-.05029-1.81006-.15967a1.51676,1.51676,0,0,1-.71.60986,2.40193,2.40193,0,0,1-1.22021.11035,2.06856,2.06856,0,0,1-1.89209-1.81A2.6526,2.6526,0,0,1,15.47,14h6.49Zm-6.24-1c-.2,0-.18994-.04-.1499-.24023a2.46656,2.46656,0,0,1,.57983-1.22949,1.6161,1.6161,0,0,1,.98-.47021,2.304,2.304,0,0,1,1.39014.19971,1.77181,1.77181,0,0,1,.98,1.38037c.02.1001.02.35986.04.35986Z"/><path class="b" d="M15,8V7h5.02411s.00192.62116-.0038.998c-.00044.02876-.051.02221-.08564.04049C19.90954,8.05173,19.87214,8,19.84021,8H15Z"/></svg>