<svg xmlns="http://www.w3.org/2000/svg" viewBox="0 0 245.18274 8.25"><defs><style>.a{fill:#5e5e5e;}</style></defs><title>dulockwood_mockup-2017</title><path class="a" d="M0,.3571H3.13935A2.31239,2.31239,0,0,1,4.69113.81194a1.60241,1.60241,0,0,1,.56226,1.26629A1.31659,1.31659,0,0,1,4.18306,3.40694v.03581a1.73335,1.73335,0,0,1,.98565.57532,1.5994,1.5994,0,0,1,.34306,1.03887,1.9383,1.9383,0,0,1-.16935.83855,1.70819,1.70819,0,0,1-.48145.60629,2.51334,2.51334,0,0,1-1.64129.49065H0ZM2.92548,3.02371a.99954.99954,0,0,0,.62855-.1829.66038.66038,0,0,0,.23661-.55742A.68844.68844,0,0,0,3.56323,1.726a.93292.93292,0,0,0-.61984-.19161H1.50726V3.02371ZM3.059,5.79726a.99387.99387,0,0,0,.705-.241A.78619.78619,0,0,0,4.00452,4.95a.77067.77067,0,0,0-.27629-.65081,1.10254,1.10254,0,0,0-.69581-.21435H1.50726V5.79726Z"/><path class="a" d="M6.511.3571H9.66823a3.09858,3.09858,0,0,1,.89661.12484,2.08157,2.08157,0,0,1,.71758.37016,1.75562,1.75562,0,0,1,.4771.59758,1.79664,1.79664,0,0,1,.17419.8071,1.66917,1.66917,0,0,1-.29419.99871,1.77033,1.77033,0,0,1-.93677.61548v.02661a1.43948,1.43948,0,0,1,.736.45048,1.69191,1.69191,0,0,1,.30774.83371q.04427.339.06677.63774c.015.19935.02952.3779.04452.53516a2.83388,2.83388,0,0,0,.05806.38371.24727.24727,0,0,0,.11613.1829v.07113H10.53339a.24467.24467,0,0,1-.10258-.17855,3.35358,3.35358,0,0,1-.05371-.35226c-.01452-.13935-.02806-.29565-.03968-.4679-.0121-.17274-.0271-.35081-.045-.53516A1.20611,1.20611,0,0,0,9.96726,4.709,1.15412,1.15412,0,0,0,9.151,4.45935H8.02742V6.99242H6.511ZM8.02742,3.33581H9.374a1.1353,1.1353,0,0,0,.77565-.23661.806.806,0,0,0,.26758-.63726.88719.88719,0,0,0-.24484-.65565A1.02793,1.02793,0,0,0,9.41855,1.561H8.02742Z"/><path class="a" d="M15.07306.3571h1.57887l2.399,6.63532H17.44548l-.419-1.26629H14.61823L14.2079,6.99242H12.68274ZM14.97484,4.6379h1.70371l-.40161-1.23968q-.10669-.339-.18726-.65565-.07984-.31645-.13355-.56613c-.04161-.19645-.07742-.37742-.10694-.54435h-.0179q-.07185.33024-.14274.6421-.07185.26782-.1471.57532-.07621.30774-.15629.54871Z"/><path class="a" d="M19.89774.3571h1.55177l1.74823,2.88048q.15169.25911.30774.55742.156.299.28984.56661l.3121.62419h.0179q-.02685-.339-.04452-.68661-.01815-.29468-.02661-.63339-.00944-.339-.00919-.62419V.3571h1.454V6.99242h-1.561L22.20774,4.14726q-.15169-.24968-.3121-.56177t-.29419-.57968q-.1604-.3121-.3121-.63339h-.0179q.01742.34766.03532.69581.01815.294.03145.63339.01306.339.01355.62419V6.99242h-1.454Z"/><path class="a" d="M26.80984.3571h2.76484a3.19229,3.19229,0,0,1,1.26194.24048,2.76869,2.76869,0,0,1,.96774.6779,2.97379,2.97379,0,0,1,.61548,1.06113A4.24289,4.24289,0,0,1,32.63371,3.719a4.13541,4.13541,0,0,1-.20516,1.34226,2.80417,2.80417,0,0,1-.60629,1.03016,2.73065,2.73065,0,0,1-.99.66484,3.59842,3.59842,0,0,1-1.34661.23613H26.80984Zm2.55968,5.35113A1.5671,1.5671,0,0,0,30.65806,5.191,2.2665,2.2665,0,0,0,31.08194,3.719a2.46454,2.46454,0,0,0-.42387-1.51161,1.47569,1.47569,0,0,0-1.26194-.56613H28.335V5.70823Z"/><path class="a" d="M38.57323,7.15306a4.41387,4.41387,0,0,1-1.20387-.15194,2.78379,2.78379,0,0,1-.91839-.43694,1.94263,1.94263,0,0,1-.59323-.70887,2.30532,2.30532,0,0,1-.22742-.959h1.53387a1.06511,1.06511,0,0,0,.41468.794,1.70134,1.70134,0,0,0,.99435.24968,2.02718,2.02718,0,0,0,.42823-.04452,1.23847,1.23847,0,0,0,.36581-.13839.7354.7354,0,0,0,.254-.24048.644.644,0,0,0,.09387-.35274.59754.59754,0,0,0-.10258-.35661.80866.80866,0,0,0-.299-.241,2.57142,2.57142,0,0,0-.48145-.17371q-.286-.07548-.6421-.15581-.48194-.10742-.90968-.241a2.81705,2.81705,0,0,1-.74952-.35226,1.57564,1.57564,0,0,1-.50371-.55306,1.76244,1.76244,0,0,1-.1829-.85161,1.8936,1.8936,0,0,1,.19645-.89177,1.72741,1.72741,0,0,1,.54387-.61984,2.46173,2.46173,0,0,1,.82065-.36581A4.141,4.141,0,0,1,38.43048.241a3.86746,3.86746,0,0,1,1.0079.12484,2.3827,2.3827,0,0,1,.80274.37452,1.9073,1.9073,0,0,1,.54387.61984,2.05952,2.05952,0,0,1,.241.86081H39.53661A.88745.88745,0,0,0,39.18,1.61468a1.32387,1.32387,0,0,0-.794-.21435,1.36207,1.36207,0,0,0-.75774.18726.57165.57165,0,0,0-.28548.49935.47455.47455,0,0,0,.10694.32129.88776.88776,0,0,0,.3121.21871,2.821,2.821,0,0,0,.50371.165q.299.07113.69145.16016a8.56137,8.56137,0,0,1,.86081.23661,2.62846,2.62846,0,0,1,.73113.37016,1.77138,1.77138,0,0,1,.50855.57968,1.794,1.794,0,0,1,.19161.87387,1.9019,1.9019,0,0,1-.77129,1.58323,2.627,2.627,0,0,1-.84726.41468A3.7512,3.7512,0,0,1,38.57323,7.15306Z"/><path class="a" d="M41.98065.3571h5.476V1.65h-1.98V6.99242H43.95145V1.65H41.98065Z"/><path class="a" d="M48.25935.3571h3.15726a3.09858,3.09858,0,0,1,.89661.12484,2.08157,2.08157,0,0,1,.71758.37016,1.75562,1.75562,0,0,1,.4771.59758,1.79664,1.79664,0,0,1,.17419.8071,1.66917,1.66917,0,0,1-.29419.99871,1.77033,1.77033,0,0,1-.93677.61548v.02661a1.43948,1.43948,0,0,1,.736.45048,1.69191,1.69191,0,0,1,.30774.83371q.04427.339.06677.63774c.015.19935.02952.3779.04452.53516a2.83388,2.83388,0,0,0,.05806.38371.24727.24727,0,0,0,.11613.1829v.07113H52.28177a.24467.24467,0,0,1-.10258-.17855,3.35358,3.35358,0,0,1-.05371-.35226c-.01452-.13935-.02806-.29565-.03968-.4679-.0121-.17274-.0271-.35081-.045-.53516a1.20611,1.20611,0,0,0-.32516-.74952,1.15412,1.15412,0,0,0-.81629-.24968H49.77581V6.99242H48.25935Zm1.51645,2.97871h1.34661a1.1353,1.1353,0,0,0,.77565-.23661.806.806,0,0,0,.26758-.63726.88719.88719,0,0,0-.24484-.65565,1.02793,1.02793,0,0,0-.75387-.24532H49.77581Z"/><path class="a" d="M56.73194.3571h1.57887l2.399,6.63532H59.10435l-.419-1.26629H56.2771l-.41032,1.26629H54.34161ZM56.63371,4.6379h1.70371l-.40161-1.23968q-.10669-.339-.18726-.65565-.07984-.31645-.13355-.56613c-.04161-.19645-.07742-.37742-.10694-.54435h-.0179q-.07185.33024-.14274.6421-.07185.26782-.1471.57532-.07621.30774-.15629.54871Z"/><path class="a" d="M60.34452.3571h5.476V1.65h-1.98V6.99242H62.31532V1.65H60.34452Z"/><path class="a" d="M66.80177.3571h4.97661V1.62339H68.31823v1.32h2.99661V4.14726H68.31823V5.69032h3.52258v1.3021h-5.039Z"/><path class="a" d="M77.77113,6.10065h-.02661a1.78715,1.78715,0,0,1-.79355.7979,2.49563,2.49563,0,0,1-1.11484.24532,3.18945,3.18945,0,0,1-1.27984-.24532,2.8977,2.8977,0,0,1-.97694-.68226,3.14164,3.14164,0,0,1-.66-1.11,4.23431,4.23431,0,0,1-.22258-1.40468A4.03993,4.03993,0,0,1,72.991,2.13629a3.03657,3.03657,0,0,1,.856-1.18161,2.9846,2.9846,0,0,1,.91887-.52645A3.44239,3.44239,0,0,1,75.94306.241a3.665,3.665,0,0,1,1.12355.16065,2.76985,2.76985,0,0,1,.86516.44565,2.33108,2.33108,0,0,1,.59323.68226,2.77214,2.77214,0,0,1,.31645.87h-1.516a1.37016,1.37016,0,0,0-.44613-.63774,1.3673,1.3673,0,0,0-.89177-.26323,1.6519,1.6519,0,0,0-.77129.16935,1.574,1.574,0,0,0-.54435.464,2.02084,2.02084,0,0,0-.32516.69968,3.39326,3.39326,0,0,0-.10742.87,2.96067,2.96067,0,0,0,.12484.88258,2.18121,2.18121,0,0,0,.35274.69581,1.572,1.572,0,0,0,1.28855.62419A1.687,1.687,0,0,0,76.634,5.7929a1.49512,1.49512,0,0,0,.47274-.28984,1.29616,1.29616,0,0,0,.299-.41468,1.17163,1.17163,0,0,0,.10694-.48629V4.57548h-1.3379V3.44274h2.774V6.99242H77.89645Z"/><path class="a" d="M81.93677,4.51306,79.66258.3571h1.6679l.71323,1.39113q.11613.23226.23177.50371.11613.27218.21435.5129.10669.286.21387.56177h.0179q.10669-.27581.22306-.56177.098-.241.21823-.5129.12048-.27145.23661-.50371L84.12194.3571h1.60548L83.45274,4.49516V6.99242h-1.516Z"/><path class="a" d="M88.96452,0h.89177V8.25h-.89177Z"/><path class="a" d="M93.55694.3571h2.04242l.82935,2.76484q.08927.3121.17855.71323.08927.40137.16065.77613.08855.4275.16065.87387h.02661q.07113-.44565.15145-.87387.07113-.37452.15629-.77613.08419-.40137.1829-.71323L98.25726.3571h2.069V6.99242H98.926v-2.97q0-.3121.0179-.72242.01815-.41008.03581-.78484.02685-.42823.05323-.88306h-.01742q-.08056.41081-.16984.81194-.07113.339-.165.71758-.09363.3796-.18242.67355l-.94548,3.15726H96.30387l-.95419-3.15726q-.08927-.294-.1829-.67355-.09363-.37887-.165-.71758-.08927-.40137-.16935-.81194h-.0179q.02685.45508.05371.88306.01742.37452.03532.78484.01815.41008.0179.72242v2.97H93.55694Z"/><path class="a" d="M104.62548,7.15306a3.43912,3.43912,0,0,1-1.36452-.25887,2.97046,2.97046,0,0,1-1.03452-.72242,3.1758,3.1758,0,0,1-.65565-1.09694,4.02447,4.02447,0,0,1-.22742-1.37323,4.052,4.052,0,0,1,.22742-1.38242,3.13,3.13,0,0,1,.65565-1.09258A3.04888,3.04888,0,0,1,103.261.50419a3.64449,3.64449,0,0,1,2.71984,0,3.05559,3.05559,0,0,1,1.035.72242,3.13622,3.13622,0,0,1,.65516,1.09258,4.052,4.052,0,0,1,.22742,1.38242,4.02447,4.02447,0,0,1-.22742,1.37323,3.1822,3.1822,0,0,1-.65516,1.09694,2.97685,2.97685,0,0,1-1.035.72242A3.41518,3.41518,0,0,1,104.62548,7.15306Zm.00871-1.24887a1.58139,1.58139,0,0,0,.74952-.16935,1.54088,1.54088,0,0,0,.53468-.46355,2.08,2.08,0,0,0,.32129-.69581,3.3941,3.3941,0,0,0,.10694-.87387,3.44576,3.44576,0,0,0-.10694-.87871,2.17739,2.17739,0,0,0-.32129-.70887,1.50432,1.50432,0,0,0-.53468-.47274,1.58714,1.58714,0,0,0-.74952-.16935,1.61006,1.61006,0,0,0-.75339.16935,1.53414,1.53414,0,0,0-.54435.47274,2.20035,2.20035,0,0,0-.33.70887,3.31792,3.31792,0,0,0-.11129.87871,3.26827,3.26827,0,0,0,.11129.87387,2.102,2.102,0,0,0,.33.69581,1.57259,1.57259,0,0,0,.54435.46355A1.6042,1.6042,0,0,0,104.63419,5.90419Z"/><path class="a" d="M108.60339.3571h5.476V1.65h-1.98V6.99242h-1.52516V1.65h-1.97081Z"/><path class="a" d="M115.06016.3571h1.52516V6.99242h-1.52516Z"/><path class="a" d="M120.90242,7.15306a3.43912,3.43912,0,0,1-1.36452-.25887,2.97046,2.97046,0,0,1-1.03452-.72242,3.1758,3.1758,0,0,1-.65565-1.09694,4.02447,4.02447,0,0,1-.22742-1.37323,4.052,4.052,0,0,1,.22742-1.38242,3.13,3.13,0,0,1,.65565-1.09258A3.04888,3.04888,0,0,1,119.5379.50419a3.64449,3.64449,0,0,1,2.71984,0,3.05559,3.05559,0,0,1,1.035.72242,3.13622,3.13622,0,0,1,.65516,1.09258,4.052,4.052,0,0,1,.22742,1.38242,4.02447,4.02447,0,0,1-.22742,1.37323,3.1822,3.1822,0,0,1-.65516,1.09694,2.97685,2.97685,0,0,1-1.035.72242A3.41518,3.41518,0,0,1,120.90242,7.15306Zm.00871-1.24887a1.58139,1.58139,0,0,0,.74952-.16935,1.54088,1.54088,0,0,0,.53468-.46355,2.08,2.08,0,0,0,.32129-.69581,3.3941,3.3941,0,0,0,.10694-.87387,3.44577,3.44577,0,0,0-.10694-.87871,2.17739,2.17739,0,0,0-.32129-.70887,1.50432,1.50432,0,0,0-.53468-.47274,1.58714,1.58714,0,0,0-.74952-.16935,1.61006,1.61006,0,0,0-.75339.16935,1.53414,1.53414,0,0,0-.54435.47274,2.20035,2.20035,0,0,0-.33.70887,3.31792,3.31792,0,0,0-.11129.87871,3.26827,3.26827,0,0,0,.11129.87387,2.102,2.102,0,0,0,.33.69581,1.57259,1.57259,0,0,0,.54435.46355A1.6042,1.6042,0,0,0,120.91113,5.90419Z"/><path class="a" d="M125.20113.3571h1.55177l1.74823,2.88048q.15169.25911.30774.55742.156.299.28984.56661l.3121.62419h.0179q-.02685-.339-.04452-.68661-.01815-.29468-.02661-.63339-.00944-.339-.00919-.62419V.3571h1.454V6.99242h-1.561l-1.73032-2.84516q-.15169-.24968-.3121-.56177t-.29419-.57968q-.1604-.3121-.3121-.63339h-.0179q.01742.34766.03532.69581.01815.294.03145.63339.01306.339.01355.62419V6.99242h-1.454Z"/><path class="a" d="M134.44065.3571h2.76484a3.19229,3.19229,0,0,1,1.26194.24048,2.76869,2.76869,0,0,1,.96774.6779,2.97379,2.97379,0,0,1,.61548,1.06113,4.24289,4.24289,0,0,1,.21387,1.38242,4.13541,4.13541,0,0,1-.20516,1.34226,2.80417,2.80417,0,0,1-.60629,1.03016,2.73065,2.73065,0,0,1-.99.66484,3.59842,3.59842,0,0,1-1.34661.23613h-2.67581Zm2.55968,5.35113a1.5671,1.5671,0,0,0,1.28855-.51726,2.2665,2.2665,0,0,0,.42387-1.47194,2.46454,2.46454,0,0,0-.42387-1.51161,1.47569,1.47569,0,0,0-1.26194-.56613h-1.06113V5.70823Z"/><path class="a" d="M141.27194.3571h4.97661V1.62339h-3.46016v1.32H145.785V4.14726h-2.99661V5.69032H146.311v1.3021h-5.039Z"/><path class="a" d="M150.03,7.15306a4.41387,4.41387,0,0,1-1.20387-.15194,2.78379,2.78379,0,0,1-.91839-.43694,1.94263,1.94263,0,0,1-.59323-.70887,2.30532,2.30532,0,0,1-.22742-.959H148.621a1.06511,1.06511,0,0,0,.41468.794A1.70134,1.70134,0,0,0,150.03,5.94a2.02718,2.02718,0,0,0,.42823-.04452,1.23847,1.23847,0,0,0,.36581-.13839.7354.7354,0,0,0,.254-.24048.644.644,0,0,0,.09387-.35274.59754.59754,0,0,0-.10258-.35661.80865.80865,0,0,0-.299-.241,2.57142,2.57142,0,0,0-.48145-.17371q-.286-.07548-.6421-.15581-.48194-.10742-.90968-.241a2.81705,2.81705,0,0,1-.74952-.35226,1.57564,1.57564,0,0,1-.50371-.55306,1.76244,1.76244,0,0,1-.1829-.85161,1.8936,1.8936,0,0,1,.19645-.89177,1.72741,1.72741,0,0,1,.54387-.61984,2.46173,2.46173,0,0,1,.82065-.36581A4.141,4.141,0,0,1,149.88726.241a3.86746,3.86746,0,0,1,1.0079.12484,2.3827,2.3827,0,0,1,.80274.37452,1.9073,1.9073,0,0,1,.54387.61984,2.05952,2.05952,0,0,1,.241.86081h-1.48935a.88745.88745,0,0,0-.35661-.60629,1.32387,1.32387,0,0,0-.794-.21435,1.36207,1.36207,0,0,0-.75774.18726.57165.57165,0,0,0-.28548.49935.47455.47455,0,0,0,.10694.32129.88776.88776,0,0,0,.3121.21871,2.821,2.821,0,0,0,.50371.165q.299.07113.69145.16016a8.56137,8.56137,0,0,1,.86081.23661,2.62846,2.62846,0,0,1,.73113.37016,1.77138,1.77138,0,0,1,.50855.57968,1.794,1.794,0,0,1,.19161.87387,1.9019,1.9019,0,0,1-.77129,1.58323,2.627,2.627,0,0,1-.84726.41468A3.7512,3.7512,0,0,1,150.03,7.15306Z"/><path class="a" d="M153.75823.3571h1.52516V6.99242h-1.52516Z"/><path class="a" d="M161.41016,6.10065h-.02661a1.78715,1.78715,0,0,1-.79355.7979,2.49563,2.49563,0,0,1-1.11484.24532,3.18945,3.18945,0,0,1-1.27984-.24532,2.8977,2.8977,0,0,1-.97694-.68226,3.14164,3.14164,0,0,1-.66-1.11,4.23431,4.23431,0,0,1-.22258-1.40468A4.03993,4.03993,0,0,1,156.63,2.13629a3.03657,3.03657,0,0,1,.856-1.18161,2.9846,2.9846,0,0,1,.91887-.52645A3.44239,3.44239,0,0,1,159.5821.241a3.665,3.665,0,0,1,1.12355.16065,2.76985,2.76985,0,0,1,.86516.44565,2.33108,2.33108,0,0,1,.59323.68226,2.77214,2.77214,0,0,1,.31645.87h-1.516a1.37016,1.37016,0,0,0-.44613-.63774,1.36731,1.36731,0,0,0-.89177-.26323,1.6519,1.6519,0,0,0-.77129.16935,1.574,1.574,0,0,0-.54435.464,2.02084,2.02084,0,0,0-.32516.69968,3.39325,3.39325,0,0,0-.10742.87,2.96068,2.96068,0,0,0,.12484.88258A2.18121,2.18121,0,0,0,158.356,5.28a1.572,1.572,0,0,0,1.28855.62419,1.687,1.687,0,0,0,.62855-.11129,1.49513,1.49513,0,0,0,.47274-.28984,1.29616,1.29616,0,0,0,.299-.41468,1.17163,1.17163,0,0,0,.10694-.48629V4.57548h-1.3379V3.44274h2.774V6.99242h-1.05242Z"/><path class="a" d="M163.76516.3571h1.55177l1.74823,2.88048q.15169.25911.30774.55742.156.299.28984.56661l.3121.62419h.0179q-.02685-.339-.04452-.68661-.01815-.29468-.02661-.63339-.00944-.339-.00919-.62419V.3571h1.454V6.99242h-1.561l-1.73032-2.84516q-.15169-.24968-.3121-.56177t-.29419-.57968q-.1604-.3121-.3121-.63339h-.0179q.01742.34766.03532.69581.01815.294.03145.63339.01306.339.01355.62419V6.99242h-1.454Z"/><path class="a" d="M173.05839,0h.89177V8.25h-.89177Z"/><path class="a" d="M177.65129.3571h1.52516V6.99242h-1.52516Z"/><path class="a" d="M180.48726.3571h1.51645V5.69032h3.059v1.3021h-4.57548Z"/><path class="a" d="M186.05274.3571h1.51645V5.69032h3.059v1.3021h-4.57548Z"/><path class="a" d="M194.30274,7.11726a2.98341,2.98341,0,0,1-2.05548-.62855,2.30224,2.30224,0,0,1-.70016-1.80629V.3571h1.516V4.71823a1.18548,1.18548,0,0,0,.299.856,1.24853,1.24853,0,0,0,.94065.3121,1.17383,1.17383,0,0,0,.901-.32516,1.22722,1.22722,0,0,0,.30339-.86952V.3571h1.52468V4.68242a2.31216,2.31216,0,0,1-.69532,1.80145A2.924,2.924,0,0,1,194.30274,7.11726Z"/><path class="a" d="M200.85823,7.15306a4.40888,4.40888,0,0,1-1.20387-.15194,2.78438,2.78438,0,0,1-.91935-.43694,1.946,1.946,0,0,1-.59274-.70887,2.30532,2.30532,0,0,1-.22742-.959h1.53435a1.06009,1.06009,0,0,0,.41419.794,1.702,1.702,0,0,0,.99484.24968,2.0226,2.0226,0,0,0,.42774-.04452,1.2488,1.2488,0,0,0,.36581-.13839.74555.74555,0,0,0,.25452-.24048.64773.64773,0,0,0,.0929-.35274.59422.59422,0,0,0-.10258-.35661.79715.79715,0,0,0-.29806-.241,2.59,2.59,0,0,0-.48194-.17371q-.286-.07548-.64258-.15581c-.32032-.07161-.62419-.15194-.90968-.241a2.80665,2.80665,0,0,1-.749-.35226,1.57564,1.57564,0,0,1-.50371-.55306,1.76244,1.76244,0,0,1-.1829-.85161,1.8936,1.8936,0,0,1,.19645-.89177,1.72417,1.72417,0,0,1,.54435-.61984,2.46092,2.46092,0,0,1,.81968-.36581A4.14771,4.14771,0,0,1,200.715.241a3.87386,3.87386,0,0,1,1.00839.12484,2.38017,2.38017,0,0,1,.80226.37452,1.913,1.913,0,0,1,.54387.61984,2.05952,2.05952,0,0,1,.241.86081h-1.48935a.88624.88624,0,0,0-.3571-.60629,1.32028,1.32028,0,0,0-.79355-.21435,1.35986,1.35986,0,0,0-.75774.18726.57165.57165,0,0,0-.28548.49935.47922.47922,0,0,0,.10645.32129.89919.89919,0,0,0,.31258.21871,2.80123,2.80123,0,0,0,.50419.165q.299.07113.691.16016a8.48178,8.48178,0,0,1,.86032.23661,2.62479,2.62479,0,0,1,.73161.37016,1.76443,1.76443,0,0,1,.50806.57968,1.794,1.794,0,0,1,.19161.87387,1.89519,1.89519,0,0,1-.77129,1.58323,2.61956,2.61956,0,0,1-.84677.41468A3.75019,3.75019,0,0,1,200.85823,7.15306Z"/><path class="a" d="M204.26468.3571h5.47548V1.65h-1.979V6.99242H206.236V1.65h-1.97129Z"/><path class="a" d="M210.72242.3571h3.15677a3.09049,3.09049,0,0,1,.89613.12484,2.07958,2.07958,0,0,1,.71806.37016,1.7614,1.7614,0,0,1,.4771.59758,1.79664,1.79664,0,0,1,.17419.8071,1.66587,1.66587,0,0,1-.29419.99871,1.77225,1.77225,0,0,1-.93677.61548v.02661a1.4338,1.4338,0,0,1,.73548.45048,1.68262,1.68262,0,0,1,.30774.83371q.045.339.06774.63774c.01452.19935.029.3779.04452.53516a2.68763,2.68763,0,0,0,.05806.38371.24667.24667,0,0,0,.11516.1829v.07113h-1.49806a.24317.24317,0,0,1-.10258-.17855,3.12832,3.12832,0,0,1-.05323-.35226c-.01548-.13935-.02806-.29565-.04065-.4679-.01161-.17274-.02613-.35081-.04452-.53516a1.20611,1.20611,0,0,0-.32516-.74952,1.1536,1.1536,0,0,0-.81581-.24968H212.2379V6.99242h-1.51548Zm1.51548,2.97871h1.3471a1.13835,1.13835,0,0,0,.77613-.23661.80721.80721,0,0,0,.2671-.63726.88528.88528,0,0,0-.24484-.65565,1.02716,1.02716,0,0,0-.75387-.24532H212.2379Z"/><path class="a" d="M219.194.3571h1.57839l2.399,6.63532h-1.60452l-.42-1.26629h-2.40774l-.41032,1.26629h-1.52516Zm-.09774,4.28081h1.70323l-.40161-1.23968q-.10742-.339-.18677-.65565-.08129-.31645-.13452-.56613c-.04161-.19645-.07645-.37742-.10645-.54435h-.01839q-.07113.33024-.14226.6421-.07113.26782-.1471.57532-.07548.30774-.15581.54871Z"/><path class="a" d="M222.98468.3571h5.47548V1.65h-1.979V6.99242H224.956V1.65h-1.97129Z"/><path class="a" d="M229.44145.3571h1.52516V6.99242h-1.52516Z"/><path class="a" d="M235.28274,7.15306a3.44247,3.44247,0,0,1-1.36452-.25887,2.97494,2.97494,0,0,1-1.03452-.72242,3.1822,3.1822,0,0,1-.65516-1.09694,4.02447,4.02447,0,0,1-.22742-1.37323,4.052,4.052,0,0,1,.22742-1.38242,3.13622,3.13622,0,0,1,.65516-1.09258,3.0536,3.0536,0,0,1,1.03452-.72242,3.64575,3.64575,0,0,1,2.72032,0,3.05361,3.05361,0,0,1,1.03452.72242,3.1383,3.1383,0,0,1,.65613,1.09258,4.07557,4.07557,0,0,1,.22742,1.38242,4.048,4.048,0,0,1-.22742,1.37323,3.18432,3.18432,0,0,1-.65613,1.09694,2.97494,2.97494,0,0,1-1.03452.72242A3.41926,3.41926,0,0,1,235.28274,7.15306Zm.00968-1.24887a1.578,1.578,0,0,0,.749-.16935,1.55116,1.55116,0,0,0,.53516-.46355,2.07867,2.07867,0,0,0,.32032-.69581,3.37262,3.37262,0,0,0,.10742-.87387,3.42392,3.42392,0,0,0-.10742-.87871,2.176,2.176,0,0,0-.32032-.70887,1.514,1.514,0,0,0-.53516-.47274,1.58377,1.58377,0,0,0-.749-.16935,1.61208,1.61208,0,0,0-.75387.16935,1.53263,1.53263,0,0,0-.54387.47274,2.1703,2.1703,0,0,0-.33.70887,3.29745,3.29745,0,0,0-.11226.87871,3.2481,3.2481,0,0,0,.11226.87387,2.07382,2.07382,0,0,0,.33.69581,1.571,1.571,0,0,0,.54387.46355A1.6062,1.6062,0,0,0,235.29242,5.90419Z"/><path class="a" d="M239.58242.3571h1.55129l1.74871,2.88048q.151.25911.30677.55742.15677.299.29032.56661l.31258.62419h.01742c-.01742-.226-.0329-.45484-.04452-.68661-.01161-.19645-.02129-.40742-.0271-.63339s-.00871-.434-.00871-.62419V.3571h1.45355V6.99242h-1.561l-1.72935-2.84516c-.10161-.16645-.20516-.35371-.31258-.56177s-.20516-.40113-.29419-.57968c-.10742-.20806-.211-.419-.31258-.63339h-.01742q.01742.34766.03581.69581.01742.294.031.63339.01306.339.01355.62419V6.99242h-1.45355Z"/></svg>