<svg xmlns="http://www.w3.org/2000/svg" viewBox="0 0 24 24"><defs><style>.a{fill:#212121;}.b{fill:#eee;}</style></defs><title>dulockwood_mockup-2017</title><rect class="a" width="24" height="24"/><path class="b" d="M16.17993,5a3.97787,3.97787,0,0,1,1.53.41992A6.16452,6.16452,0,0,1,18.78,6.08008a.26475.26475,0,0,0,.2.06006,7.62017,7.62017,0,0,0,1.8-.54c.21-.1001.40991-.2002.6499-.31006a3.87682,3.87682,0,0,1-1.68994,2,7.01553,7.01553,0,0,0,1.11987-.16016A10.49964,10.49964,0,0,0,21.97,6.81006a2.08593,2.08593,0,0,1-.25.31006,7.94994,7.94994,0,0,1-1.7,1.46973.172.172,0,0,0-.08008.16016,11.12929,11.12929,0,0,1-1.11987,4.81006A10.51817,10.51817,0,0,1,17.16016,15.98,11.32688,11.32688,0,0,1,13.51,18.6499,12.31292,12.31292,0,0,1,8.1001,19.77a12.76115,12.76115,0,0,1-3.47021-.54,13.0111,13.0111,0,0,1-2.52979-1.0498c-.04-.02-.08008-.04-.13013-.07031.13013,0,.25-.00977.36011,0a9.99618,9.99618,0,0,0,4.31982-.71973,7.07662,7.07662,0,0,0,1.41016-.80029c-.18018-.02-.33008-.04-.49-.06982A4.4157,4.4157,0,0,1,5.72,15.83984a3.82907,3.82907,0,0,1-1.38989-1.80957c-.01-.01025,0-.02051-.01-.04a2.86053,2.86053,0,0,0,1.76-.07031c-.16992-.0498-.3501-.08984-.52-.13965A3.63384,3.63384,0,0,1,3.1001,11.48a4.65808,4.65808,0,0,1-.22021-1.16992c0-.06006.02-.06006.07007-.04a5.25479,5.25479,0,0,0,1.51.39014c.09009.00977.18018.02.27.02979,0-.04-.03-.0498-.05-.06006a5.02012,5.02012,0,0,1-1.26978-1.29,2.99671,2.99671,0,0,1-.53027-1.92969A4.1864,4.1864,0,0,1,3.39014,5.77c.03979-.08008.06982-.02.08984.01025.3.30957.6001.60986.93018.88965A11.56922,11.56922,0,0,0,7.47,8.58008a13.96757,13.96757,0,0,0,3.17017.88965c.3999.07031.7998.12012,1.2.16016.07983.01025.07007-.02979.05-.08008a2.698,2.698,0,0,1-.13013-.98,3.23465,3.23465,0,0,1,.72-1.8999,4.21388,4.21388,0,0,1,2.7-1.60986A6.67465,6.67465,0,0,1,16.17993,5Z"/></svg>