<svg xmlns="http://www.w3.org/2000/svg" viewBox="0 0 172.245 14"><defs><style>.a{fill:#eee;}</style></defs><title>yap</title><path class="a" d="M0,10.648l.094-.468H1.232L3.2.7H2.011L2.12.234H6.828c2.557,0,4.833,1.278,4.833,4.428A6.17,6.17,0,0,1,8.793,9.775c-1.5.967-2.76.873-4.443.873Zm3.866-.468H4.942a5,5,0,0,0,1.793-.265c1.013-.374,1.59-2.323,1.809-3.289A25.918,25.918,0,0,0,9.1,2.588C9.1.9,7.858.7,6.969.7H5.815Z"/><path class="a" d="M17.821,4.474h1.731l-1.341,5.02c-.125.483.109.546.2.546.53,0,1.154-1.232,1.356-1.668l.328.109c-.452.951-1.091,2.229-2.292,2.229-.749,0-1.107-.67-1.232-1.325a2.613,2.613,0,0,1-2.182,1.5,2.2,2.2,0,0,1-2.121-2.4A4.306,4.306,0,0,1,14.937,4.6a2.4,2.4,0,0,1,.92-.218A1.722,1.722,0,0,1,17.494,5.55Zm-3.1,2.837A25.269,25.269,0,0,0,14.2,9.791a.6.6,0,0,0,.624.655c1.434,0,2.339-3.227,2.339-4.365,0-.577-.3-1.263-.951-1.263C15.95,4.817,15.311,4.973,14.719,7.312Z"/><path class="a" d="M23.621,6.065l.031.031c.717-.811,1.372-1.715,2.572-1.715.686,0,1.746.39,1.465,1.621l-.9,3.866a.27.27,0,0,0,.265.3c.515,0,1.2-1.169,1.372-1.59l.265.078c-.515,1.263-1.076,2.058-2.51,2.058-.795,0-1.574-.327-1.263-1.621l.811-3.305c.156-.655-.016-.873-.2-.873-.421,0-.9.577-1.185.873a4.255,4.255,0,0,0-1.185,2.354l-.593,2.51H20.519l1.387-5.737H20.784l.109-.437H22.5c.53,0,1.06-.062,1.59-.062Z"/><path class="a" d="M29.251,4.911l.109-.437h1.606c.53,0,1.06-.062,1.59-.062L31.324,9.6c-.094.421-.14.624.187.624.53,0,1.169-1.263,1.356-1.715l.328.156c-.515,1.325-1.138,2.214-2.635,2.214-.655,0-1.263-.343-1.263-.873a8.319,8.319,0,0,1,.218-1.232l.857-3.866Zm3.757-3.227a1.111,1.111,0,0,1-1.091,1.122,1.075,1.075,0,0,1-1-1.122,1.09,1.09,0,0,1,1-1.029A1.061,1.061,0,0,1,33.008,1.684Z"/><path class="a" d="M36.1,8.107a9.57,9.57,0,0,0-.265,1.606c0,.561.328.733.827.733a3.9,3.9,0,0,0,3.18-1.762l.25.218a4.24,4.24,0,0,1-3.695,1.98,2.493,2.493,0,0,1-2.713-2.463c0-2.1,2.292-4.038,4.3-4.038.983,0,2.292.436,2.292,1.653,0,1-.686,1.512-1.559,1.809a4.457,4.457,0,0,1-1.356.265Zm1.013-.437a1.833,1.833,0,0,0,1.574-1.964c0-.592-.218-.889-.842-.889-.468,0-.857.218-1.122,1.107L36.2,7.67Z"/><path class="a" d="M42.223.592l.109-.436h1.606A13.737,13.737,0,0,0,45.529,0L43.315,9.588c-.047.234-.14.608.187.639.561.047,1.185-1.2,1.388-1.637l.327.171c-.53,1.232-1.107,2.12-2.51,2.12a1.256,1.256,0,0,1-1.372-1.294,2.3,2.3,0,0,1,.14-.717L43.346.592Z"/><path class="a" d="M52.935.7H51.719l.109-.468H56.77L56.661.7H55.492L54.167,7.14c-.546,2.619.078,3.274,1.575,3.274A2.673,2.673,0,0,0,58.5,7.951L59.764,1.7c.171-.873-.156-1-.686-1h-.39L58.8.234h2.978L61.666.7h-.359c-.546,0-.779.327-.951,1.122L59.14,7.546c-.343,1.637-.7,2.6-2.385,3.149a5.855,5.855,0,0,1-1.809.187c-2.26,0-3.461-.92-3.461-2.6a12.087,12.087,0,0,1,.281-1.9Z"/><path class="a" d="M62.571.592,62.68.156h1.606A13.737,13.737,0,0,0,65.876,0L63.662,9.588c-.047.234-.14.608.187.639.561.047,1.185-1.2,1.388-1.637l.327.171c-.53,1.232-1.107,2.12-2.51,2.12a1.256,1.256,0,0,1-1.372-1.294,2.3,2.3,0,0,1,.14-.717L63.693.592Z"/><path class="a" d="M70.382,8.481l1.045-2.837c.187-.483.39-1.263,1.029-1.263a.7.7,0,0,1,.717.764c0,.405-.187.873-.655.873-.109,0-.3-.125-.421-.14-.249-.047-.405.452-.468.624l-1.621,4.178c-.515,1.31-1.5,3.321-3.134,3.321a1.062,1.062,0,0,1-1.107-1.06.9.9,0,0,1,.9-.951c.5,0,.935.343.827.842-.062.281.094.358.249.358.343,0,1.278-1.31,1.356-1.653a1.556,1.556,0,0,0,.062-.374,3.2,3.2,0,0,0-.2-.826L67.685,6.548c-.078-.234-.2-.951-.515-.951-.343,0-.826.967-.966,1.216l-.343-.14c.327-.873,1.2-2.292,2.26-2.292.515,0,1.107.062,1.434,1.216Z"/><path class="a" d="M74.7,7.53a1.164,1.164,0,0,1-.5-1.107A2.274,2.274,0,0,1,76.7,4.381c.686,0,1.824.3,1.824,1.185a.767.767,0,0,1-1.528.109,3.072,3.072,0,0,1,.078-.608c.047-.187-.484-.249-.608-.249-.359,0-.982.078-.982.546a.536.536,0,0,0,.312.514l1.559,1.154a1.912,1.912,0,0,1,.935,1.575,2.37,2.37,0,0,1-2.635,2.276c-.857,0-2.291-.3-2.291-1.419a.893.893,0,0,1,.92-.92.806.806,0,0,1,.8.826c0,.265-.2.577-.2.764,0,.281.624.312.857.312.468,0,1.247-.093,1.247-.733a1.066,1.066,0,0,0-.5-.811Z"/><path class="a" d="M80.611,7.53a1.164,1.164,0,0,1-.5-1.107,2.274,2.274,0,0,1,2.494-2.042c.686,0,1.824.3,1.824,1.185a.767.767,0,0,1-1.528.109,3.072,3.072,0,0,1,.078-.608c.047-.187-.484-.249-.608-.249-.359,0-.982.078-.982.546a.536.536,0,0,0,.312.514l1.559,1.154A1.912,1.912,0,0,1,84.2,8.606a2.37,2.37,0,0,1-2.635,2.276c-.857,0-2.291-.3-2.291-1.419a.893.893,0,0,1,.92-.92.806.806,0,0,1,.8.826c0,.265-.2.577-.2.764,0,.281.624.312.857.312.468,0,1.247-.093,1.247-.733a1.066,1.066,0,0,0-.5-.811Z"/><path class="a" d="M87.721,8.107a9.57,9.57,0,0,0-.265,1.606c0,.561.328.733.827.733a3.9,3.9,0,0,0,3.18-1.762l.25.218a4.24,4.24,0,0,1-3.695,1.98A2.493,2.493,0,0,1,85.3,8.419c0-2.1,2.292-4.038,4.3-4.038.983,0,2.292.436,2.292,1.653,0,1-.686,1.512-1.559,1.809a4.457,4.457,0,0,1-1.356.265Zm1.013-.437a1.833,1.833,0,0,0,1.574-1.964c0-.592-.218-.889-.842-.889-.468,0-.857.218-1.122,1.107L87.83,7.67Z"/><path class="a" d="M94,7.53a1.164,1.164,0,0,1-.5-1.107A2.274,2.274,0,0,1,96,4.381c.686,0,1.824.3,1.824,1.185a.767.767,0,0,1-1.528.109,3.072,3.072,0,0,1,.078-.608c.047-.187-.484-.249-.608-.249-.359,0-.982.078-.982.546a.536.536,0,0,0,.312.514l1.559,1.154a1.912,1.912,0,0,1,.935,1.575,2.37,2.37,0,0,1-2.635,2.276c-.857,0-2.291-.3-2.291-1.419a.893.893,0,0,1,.92-.92.806.806,0,0,1,.8.826c0,.265-.2.577-.2.764,0,.281.624.312.857.312.468,0,1.247-.093,1.247-.733a1.066,1.066,0,0,0-.5-.811Z"/><path class="a" d="M103,10.648l.109-.468h1.122l2-9.479h-1.247l.109-.468h5L110,.7h-1.2l-1.964,9.479h.857c1.9,0,2.978-1.076,3.882-2.962h.577l-.842,3.43Z"/><path class="a" d="M120.2,7.016a4.3,4.3,0,0,1-3.274,3.711,5.038,5.038,0,0,1-1.356.156,2.548,2.548,0,0,1-2.759-2.619c0-2.2,2.525-3.882,4.537-3.882A2.741,2.741,0,0,1,120.2,7.016Zm-4.428-1.278a32.719,32.719,0,0,0-.842,4.194c0,.483.577.514.967.514.608,0,1-.062,1.216-.639a19.38,19.38,0,0,0,.967-4.241c0-.546-.343-.748-.9-.748A1.323,1.323,0,0,0,115.771,5.737Z"/><path class="a" d="M127.028,9.136a4.058,4.058,0,0,1-3.243,1.746,2.629,2.629,0,0,1-2.7-2.6c0-2.058,2.229-3.9,4.194-3.9.842,0,2.152.359,2.152,1.434a.933.933,0,0,1-.967,1,.857.857,0,0,1-.9-.857,1.452,1.452,0,0,1,.078-.452,1.7,1.7,0,0,0,.078-.312.429.429,0,0,0-.437-.374.878.878,0,0,0-.873.405,12.381,12.381,0,0,0-1.2,4.49c0,.53.405.733.857.733a3.516,3.516,0,0,0,2.713-1.528Z"/><path class="a" d="M130.132.592h-1.122l.109-.436h1.606A13.73,13.73,0,0,0,132.314,0l-1.528,6.782a2.148,2.148,0,0,1,1.029-.218c.733-.967,1.2-2.354,2.6-2.354a.967.967,0,0,1,.982,1.045.889.889,0,0,1-.9.92.752.752,0,0,1-.764-.686c0-.109.109-.374.109-.515a.166.166,0,0,0-.156-.14c-.39,0-1.2,1.5-1.465,1.793a1.731,1.731,0,0,1,1.606,1.762,5.153,5.153,0,0,1-.14,1.2c-.078.327-.078.53.187.53.484,0,1.294-1.076,1.466-1.5l.281.109a2.878,2.878,0,0,1-2.432,1.98c-.7,0-1.512-.327-1.512-1.169a3.527,3.527,0,0,1,.265-1.154,3.145,3.145,0,0,0,.25-1.076c0-.156-.031-.327-.14-.327-.078,0-.156.125-.281.249a.728.728,0,0,1-.515.234.751.751,0,0,1-.561-.218l-.779,3.4h-2.027Z"/><path class="a" d="M143.134,7.468a6.474,6.474,0,0,0-.218,1.746c0,.39.094,1.013.608,1.013.92,0,2.12-2.152,2.12-3.6,0-.156.047-.546-.218-.546-.093,0-.2-.031-.312-.031a.727.727,0,0,1-.749-.811.908.908,0,0,1,.842-.857c.8,0,1.045.717.982,1.512-.249,3.2-1.762,4.989-3.4,4.989-.857,0-1.606-.624-1.606-1.933,0-.39.078-.779.109-1.138l-.031-.031c-.515,1.076-1.185,2.619-2.417,3.024a2.078,2.078,0,0,1-.67.078,1.35,1.35,0,0,1-1.466-1.216,6.88,6.88,0,0,1,.265-1.122l.686-2.323a3.966,3.966,0,0,0,.2-.857.2.2,0,0,0-.2-.2c-.421,0-1.044,1.154-1.247,1.5l-.312-.218c.468-.811,1.2-2.058,2.276-2.058a1.253,1.253,0,0,1,1.31,1.356,3.059,3.059,0,0,1-.14.826l-.827,3.025c-.187.67.047.655.2.655.593,0,1.356-1.31,1.606-1.762a11.05,11.05,0,0,0,1.029-2.6l.328-1.4h1.964Z"/><path class="a" d="M154.392,7.016a4.3,4.3,0,0,1-3.274,3.711,5.038,5.038,0,0,1-1.356.156A2.548,2.548,0,0,1,147,8.263c0-2.2,2.525-3.882,4.537-3.882A2.741,2.741,0,0,1,154.392,7.016Zm-4.428-1.278a32.719,32.719,0,0,0-.842,4.194c0,.483.577.514.967.514.608,0,1-.062,1.216-.639a19.38,19.38,0,0,0,.967-4.241c0-.546-.343-.748-.9-.748A1.323,1.323,0,0,0,149.964,5.737Z"/><path class="a" d="M162.905,7.016a4.3,4.3,0,0,1-3.274,3.711,5.038,5.038,0,0,1-1.356.156,2.548,2.548,0,0,1-2.759-2.619c0-2.2,2.525-3.882,4.537-3.882A2.741,2.741,0,0,1,162.905,7.016Zm-4.428-1.278a32.719,32.719,0,0,0-.842,4.194c0,.483.577.514.967.514.608,0,1-.062,1.216-.639a19.38,19.38,0,0,0,.967-4.241c0-.546-.343-.748-.9-.748A1.323,1.323,0,0,0,158.478,5.737Z"/><path class="a" d="M170.2.592H169.08l.109-.436h1.528c.515,0,1.013-.109,1.528-.156L170.2,9.744c-.078.39.047.5.234.5.483,0,1.185-1.263,1.278-1.715l.328.125c-.281,1.06-.983,2.229-2.183,2.229a1.339,1.339,0,0,1-1.512-1.419l-.031-.031a2.2,2.2,0,0,1-2.2,1.45,2.43,2.43,0,0,1-2.1-2.526,4.175,4.175,0,0,1,3.758-3.976,1.342,1.342,0,0,1,1.465.92Zm-2.214,4.225c-.717,0-.982.78-1.2,1.325a19.663,19.663,0,0,0-.842,3.788c0,.452.187.514.608.514,1.684,0,2.4-3.1,2.4-4.443C168.956,5.394,168.691,4.817,167.989,4.817Z"/></svg>