<svg xmlns="http://www.w3.org/2000/svg" viewBox="0 0 24 24"><defs><style>.a{fill:#212121;}.b{fill:#eee;}</style></defs><title>dulockwood_mockup-2017</title><rect class="a" width="24" height="24"/><path class="b" d="M1.96524,13.35813a8.93884,8.93884,0,0,0,.75,3.98958,4.99686,4.99686,0,0,0,2.48958,2.34375A10.838,10.838,0,0,0,8.6944,20.681a29.864,29.864,0,0,0,3.45833.1875q.80208,0,2.01042-.0625a17.64506,17.64506,0,0,0,2.151-.276,9.8091,9.8091,0,0,0,1.96354-.55729A6.66817,6.66817,0,0,0,20.0069,18.905a4.847,4.847,0,0,0,1.22917-1.55729,9.16012,9.16012,0,0,0,.72917-3.98958,7.0939,7.0939,0,0,0-1.63542-4.77083A6.38078,6.38078,0,0,0,20.65273,6.556a5.76465,5.76465,0,0,0-.60417-2.61458A5.3478,5.3478,0,0,0,17.835,4.379a11.819,11.819,0,0,0-2.30729,1.47917,14.66413,14.66413,0,0,0-3.375-.38542,16.49854,16.49854,0,0,0-3.70833.41667A11.90631,11.90631,0,0,0,6.10586,4.379a5.34781,5.34781,0,0,0-2.21354-.4375A5.64338,5.64338,0,0,0,3.27773,6.556a6.50952,6.50952,0,0,0,.32292,2.05208,7.06378,7.06378,0,0,0-1.63542,4.75ZM5,15.47271A3.56579,3.56579,0,0,1,5.67533,13.004a2.62873,2.62873,0,0,1,2.14756-.98958,20.80884,20.80884,0,0,1,2.30034.26042,12.59114,12.59114,0,0,0,1.86371.13542,12.9516,12.9516,0,0,0,1.885-.13542,22.24107,22.24107,0,0,1,2.33832-.26042,2.77974,2.77974,0,0,1,2.22645.98958,3.67149,3.67149,0,0,1,.84239,2.46875,4.2333,4.2333,0,0,1-.38609,1.85417,3.52519,3.52519,0,0,1-.96388,1.224,4.6166,4.6166,0,0,1-1.47413.8626A11.80459,11.80459,0,0,1,12.97565,20H10.95482a13.92066,13.92066,0,0,1-1.79167-.2324A8.31937,8.31937,0,0,1,7.4444,19.3337a4.82933,4.82933,0,0,1-1.42708-.743,3.18206,3.18206,0,0,1-.816-1.29337A4.25283,4.25283,0,0,1,5,15.48137Zm1.57982,0a3.3043,3.3043,0,0,0,.15625.98958,2.18043,2.18043,0,0,0,.53646.93229,1.13172,1.13172,0,0,0,1.724-.01562,2.814,2.814,0,0,0,.65625-1.90625,3.73629,3.73629,0,0,0-.13542-.97917,2.18044,2.18044,0,0,0-.53646-.93229,1.17164,1.17164,0,0,0-.85938-.39062,1.14489,1.14489,0,0,0-.875.41667A2.662,2.662,0,0,0,6.57982,15.47271Zm7.69792,0a3.3043,3.3043,0,0,0,.15625.98958,2.20665,2.20665,0,0,0,.53125.93229,1.14487,1.14487,0,0,0,.84375.39062,1.16725,1.16725,0,0,0,.88542-.40625,2.814,2.814,0,0,0,.65625-1.90625,3.71948,3.71948,0,0,0-.14583-.97917,2.18043,2.18043,0,0,0-.53646-.93229,1.17164,1.17164,0,0,0-.85938-.39062,1.08419,1.08419,0,0,0-.85417.41667,2.63758,2.63758,0,0,0-.67708,1.88542Z"/></svg>