<svg xmlns="http://www.w3.org/2000/svg" viewBox="0 0 80 80"><defs><style>.a{fill:#eee;}.b{fill:#5f5e5d;}</style></defs><title>svg_logo_80x80_filled-gray</title><circle class="a" cx="40" cy="40" r="40"/><path class="b" d="M47.0123,19.59278a18.776,18.776,0,0,0-7.00343,6.9758L40,26.58683l-.00939-.01825a18.76838,18.76838,0,0,0-7.00343-6.9758C36.479,15.75434,39.3693,9.8033,40,6.10872,40.63071,9.8033,43.521,15.75434,47.0123,19.59278Z"/><path class="b" d="M28.38356,46.70685l-.01094.0172a18.75859,18.75859,0,0,0-2.539,9.55232c-5.06962-1.104-11.66961-.63175-15.18436.66928,2.88457-2.39355,6.59269-7.87183,8.171-12.81426a19.37441,19.37441,0,0,0,8.96487,2.59006Q28.08619,46.72144,28.38356,46.70685Z"/><path class="b" d="M69.35072,56.94564c-3.51527-1.301-10.11473-1.77327-15.18435-.66928A18.76377,18.76377,0,0,0,51.62791,46.724l-.01147-.0172q.29711.01486.59839.01459a19.37546,19.37546,0,0,0,8.96435-2.59058C62.75751,49.07329,66.46616,54.55208,69.35072,56.94564Z"/><path class="b" d="M31.523,38.94552a8.58956,8.58956,0,0,0,.75789,4.712c-1.70916.95961-5.93436,2.68493-13.67223-1.85511-7.472-5.51476-5.043-17.064-7.95939-18.7481,2.91636,1.68414,11.704-6.19394,20.21592-2.48112,7.80354,4.43266,8.41965,8.956,8.44259,10.91433A8.531,8.531,0,0,0,32.60355,35.73,8.49291,8.49291,0,0,0,31.523,38.94552Z"/><path class="b" d="M52.25653,57.6243C51.21613,66.8524,40,70.52352,40,73.89128c0-3.36776-11.21665-7.03888-12.25653-16.267-.06307-8.97113,3.54341-11.7676,5.2286-12.76839q.104.15012.21423.29607a8.541,8.541,0,0,0,13.84007-.29659C48.71155,45.85565,52.3196,48.65108,52.25653,57.6243Z"/><path class="b" d="M69.35072,23.05436c-2.91688,1.68414-.48788,13.23334-7.95939,18.7481-7.73838,4.54056-11.96359,2.8142-13.67275,1.85511V43.657a8.53473,8.53473,0,0,0-3.448-11.053A8.561,8.561,0,0,0,40.69221,31.486c.02346-1.95884.64113-6.48167,8.44207-10.91276C57.64671,16.86042,66.43384,24.7385,69.35072,23.05436Z"/><circle class="b" cx="39.99995" cy="40.00006" r="6.6123" transform="translate(-14.64109 54.641) rotate(-60)"/></svg>