<svg xmlns="http://www.w3.org/2000/svg" viewBox="0 0 24 24"><defs><style>.a{fill:#212121;}.b{fill:#eee;}</style></defs><title>dulockwood_mockup-2017</title><rect class="a" width="24" height="24"/><path class="b" d="M6.81424,4.87454a2.4243,2.4243,0,1,1-2.4243-2.42471A2.4119,2.4119,0,0,1,6.81424,4.87454Z"/><path class="b" d="M6,9.25535V22.12917C6,22.37981,6.49666,22,6.246,22h-3.762C2.33343,22,2,22.34633,2,22.21326V9.2382C2,9.088,2.33343,9,2.48405,9H6.29624C6.46319,9,6,9.10431,6,9.25535Z"/><path class="b" d="M22,15.5751v6.63816C22,22.34633,21.92909,22,21.77887,22H18.13364c-.36779,0-.36779.1899-.36779-.17748,0-2.30715.01674-4.503,0-6.81017a3.94275,3.94275,0,0,0-.30084-1.57471,1.72866,1.72866,0,0,0-1.58831-1.04656,2.97738,2.97738,0,0,0-1.27073.17923A2.24164,2.24164,0,0,0,13.268,14.13149,7.66314,7.66314,0,0,0,13,15.95963v6.18669C13,22.37981,13.20135,22,12.96746,22h-3.762C9.05485,22,9,22.34633,9,22.19612V9.25535C9,9.088,9.07159,9,9.22222,9H12.8503c.13389,0,.1669.06073.1669.21095C13.00046,9.69589,13,10.20809,13,10.693v.15022c0-.66863.96994-1.187,1.65572-1.55524a4.66819,4.66819,0,0,1,1.948-.55107,6.61471,6.61471,0,0,1,2.49555.30044,3.71651,3.71651,0,0,1,2.393,2.49166,7.21364,7.21364,0,0,1,.40473,1.872C21.93,14.12028,22,14.85586,22,15.5751Z"/></svg>